<svg xmlns="http://www.w3.org/2000/svg" width="62.492" height="62.165" viewBox="0 0 62.492 62.165"><path d="M60.278,6.668,47.415.478a3.89,3.89,0,0,0-4.439.755L18.344,23.7,7.616,15.559a2.6,2.6,0,0,0-3.322.148L.852,18.838a2.6,2.6,0,0,0,0,3.851l9.3,8.488-9.3,8.488a2.6,2.6,0,0,0,0,3.851L4.3,46.643a2.6,2.6,0,0,0,3.322.148l10.728-8.145L42.978,61.118a3.885,3.885,0,0,0,4.437.755l12.868-6.189a3.906,3.906,0,0,0,2.208-3.52V10.188a3.906,3.906,0,0,0-2.214-3.52Zm-13.4,38.695L28.189,31.177l18.69-14.185V45.362Z" transform="translate(0 -0.093)" fill="#9a9a9a"/></svg>