<svg xmlns="http://www.w3.org/2000/svg" width="62.491" height="60.928" viewBox="0 0 62.491 60.928"><path d="M0,.45V61.378H62.491V.45Zm2.6,2.6H59.887V58.775H2.6ZM15.1,14.719c0-.174.365-.3.583-.3,1.677-.086,4.135-.13,6.713-.13,7.218,0,10.025,3.958,10.025,9.025,0,6.614-4.8,9.452-10.681,9.452-.989,0-1.328-.044-2.018-.044v10c0,.216-.086.3-.3.3H15.4c-.216,0-.3-.078-.3-.294V14.719ZM19.724,28.55c.6.042,1.073.042,2.109.042,3.046,0,5.911-1.073,5.911-5.2,0-3.307-2.047-4.984-5.525-4.984-1.031,0-2.018.042-2.492.086V28.558Zm22.411-3.093c-2.062,0-2.75,1.031-2.75,1.89,0,.945.469,1.588,3.221,3.007,4.083,1.979,5.369,3.867,5.369,6.658,0,4.166-3.177,6.405-7.473,6.405a11.376,11.376,0,0,1-5.338-1.12c-.169-.086-.208-.214-.208-.43v-3.82c0-.26.125-.346.3-.219a9.592,9.592,0,0,0,5.239,1.547c2.062,0,2.921-.859,2.921-2.021,0-.945-.6-1.763-3.221-3.138-3.7-1.771-5.244-3.567-5.244-6.58,0-3.351,2.619-6.145,7.173-6.145a12.136,12.136,0,0,1,4.671.729.568.568,0,0,1,.26.516v3.567c0,.216-.13.346-.391.26a9.324,9.324,0,0,0-4.538-1.12Z" transform="translate(0 -0.45)" fill="#9a9a9a"/></svg>