<svg xmlns="http://www.w3.org/2000/svg" width="51.483" height="62.495" viewBox="0 0 51.483 62.495"><path d="M30.223,0c-.4,0-.82.021-1.247.055-11.006.867-8.087,12.516-8.254,16.4a14.051,14.051,0,0,1-2.737,7.866c-2.3,2.737-5.538,7.16-7.072,11.772a13.971,13.971,0,0,0-.747,6.481,1.1,1.1,0,0,0-.289.352c-.677.7-1.169,1.565-1.724,2.185a6.324,6.324,0,0,1-2.075,1.042,3.838,3.838,0,0,0-2.25,1.773,3.466,3.466,0,0,0-.344,1.565,7.292,7.292,0,0,0,.143,1.4,6.327,6.327,0,0,1,.1,2.526c-.646,1.771-.726,2.984-.273,3.867A3.8,3.8,0,0,0,5.9,58.84c2.112.521,4.973.352,7.225,1.56,2.411,1.216,4.859,1.747,6.811,1.224a4.6,4.6,0,0,0,3.145-2.461c1.528-.008,3.2-.7,5.885-.87,1.82-.151,4.1.7,6.713.518a4.4,4.4,0,0,0,.3.87l.008.008a4.889,4.889,0,0,0,4.906,2.789,9.118,9.118,0,0,0,5.877-3.4c1.643-1.992,4.382-2.822,6.192-3.913a2.852,2.852,0,0,0,1.69-2.221c.06-1.042-.518-2.114-1.859-3.585V49.1l-.008-.008a5.911,5.911,0,0,1-.88-2.411,4.526,4.526,0,0,0-1.281-2.724h-.008c-.154-.141-.32-.174-.49-.352a.93.93,0,0,0-.495-.167,14.013,14.013,0,0,0-.45-9.618,32.626,32.626,0,0,0-5.663-9.069c-2.073-2.617-4.1-5.1-4.064-8.772.07-5.6.617-15.969-9.228-15.985ZM31.6,8.866h.034a2.478,2.478,0,0,1,1.521.516A3.983,3.983,0,0,1,34.3,10.769a5.04,5.04,0,0,1,.432,1.885c0-.052.016-.1.016-.154v.271a.224.224,0,0,1-.01-.055l-.01-.062a4.7,4.7,0,0,1-.391,1.838,2.48,2.48,0,0,1-.555.872,1.848,1.848,0,0,0-.229-.109,2.9,2.9,0,0,1-.742-.346,3.417,3.417,0,0,0-.57-.172,4.874,4.874,0,0,0,.474-.516,3.082,3.082,0,0,0,.229-1.047v-.049a3.153,3.153,0,0,0-.159-1.042,3.781,3.781,0,0,0-.476-.87,1.193,1.193,0,0,0-.7-.344h-.042a.831.831,0,0,0-.682.344,2.083,2.083,0,0,0-.534.87,3.074,3.074,0,0,0-.234,1.042v.049a6.2,6.2,0,0,0,.052.7c-.5-.174-1.14-.352-1.58-.526a4.257,4.257,0,0,1-.047-.518v-.052a4.615,4.615,0,0,1,.391-2,2.822,2.822,0,0,1,1.12-1.388A2.566,2.566,0,0,1,31.6,8.866Zm-7.712.154h.094a1.82,1.82,0,0,1,1.039.352,3.6,3.6,0,0,1,.9,1.211,4.5,4.5,0,0,1,.4,1.737v.01a3.817,3.817,0,0,1-.005.693v.208c-.078.018-.146.047-.216.062a7.067,7.067,0,0,0-1.023.521,2.825,2.825,0,0,0,.008-.7v-.039a3.432,3.432,0,0,0-.214-.867,1.6,1.6,0,0,0-.432-.7.647.647,0,0,0-.476-.167H23.9a.609.609,0,0,0-.484.344,1.437,1.437,0,0,0-.312.7,2.458,2.458,0,0,0-.06.862v.036a3.262,3.262,0,0,0,.211.87,1.6,1.6,0,0,0,.43.7.419.419,0,0,0,.089.062,3.107,3.107,0,0,0-.458.354.793.793,0,0,1-.341.177,6.825,6.825,0,0,1-.716-1.047,4.614,4.614,0,0,1-.4-1.737,4.58,4.58,0,0,1,.208-1.739A3.724,3.724,0,0,1,22.8,9.54a1.464,1.464,0,0,1,1.088-.521Zm3.57,4.442A5.285,5.285,0,0,1,30.621,14.5a11.675,11.675,0,0,0,2.742,1.219h.008a2.917,2.917,0,0,1,1.245,1.039v-.341a1.487,1.487,0,0,1,.042,1.224,4.63,4.63,0,0,1-2.77,2.195v.005c-.7.352-1.3.867-2.018,1.211a5.008,5.008,0,0,1-2.635.7,2.965,2.965,0,0,1-1.166-.174,9.285,9.285,0,0,1-.838-.516,14.957,14.957,0,0,0-1.594-1.211v-.013h-.013a4.079,4.079,0,0,1-1.786-1.851,1.306,1.306,0,0,1,.5-1.562c.583-.352.989-.706,1.258-.875.271-.193.372-.266.458-.341h.005V15.2a4.826,4.826,0,0,1,2.185-1.565,4.788,4.788,0,0,1,1.213-.169Zm7.288,5.58a62.552,62.552,0,0,0,4.52,11.647,27.266,27.266,0,0,1,2.869,7.874,4.932,4.932,0,0,1,1.336.167c1.682-4.351-1.422-9.027-2.836-10.327-.575-.523-.6-.872-.32-.872A15.126,15.126,0,0,1,44.6,34.708a9.184,9.184,0,0,1,.055,4.348,1.858,1.858,0,0,0,.534.174c2.687,1.39,3.679,2.442,3.2,4v-.112c-.159-.008-.312,0-.471,0h-.039c.393-1.216-.474-2.148-2.773-3.187-2.382-1.042-4.286-.875-4.611,1.211a3.013,3.013,0,0,0-.044.352,3.445,3.445,0,0,1-.544.167,4.752,4.752,0,0,0-2.065,3.091,26.836,26.836,0,0,0-.534,4.866v.008a20.076,20.076,0,0,1-.831,3.518c-3.906,2.791-9.322,4-13.928.87a6.886,6.886,0,0,0-1.047-1.388,3.775,3.775,0,0,0-.716-.87A4.211,4.211,0,0,0,22,51.583a1.6,1.6,0,0,0,.818-.87c.281-.7,0-1.815-.9-3.028a16.508,16.508,0,0,0-4.656-3.96,6.621,6.621,0,0,1-2.994-3.635,8.153,8.153,0,0,1-.039-4.283,25.409,25.409,0,0,1,3.317-7.194c.279-.169.1.352-1.062,2.536-1.031,1.955-2.971,6.5-.318,10.035A21.152,21.152,0,0,1,17.852,33.7c1.469-3.328,4.538-9.124,4.781-13.717.125.094.565.352.752.526.568.346.989.867,1.536,1.211a3.1,3.1,0,0,0,2.281.872c.1.008.2.016.289.016a5.586,5.586,0,0,0,2.593-.7c.755-.349,1.357-.87,1.927-1.042h.013a5.032,5.032,0,0,0,2.721-1.823Zm5.692,23.325c.1,1.565.893,3.242,2.3,3.585,1.531.349,3.734-.867,4.663-1.992l.549-.023a2.7,2.7,0,0,1,2.205.7l.008.008a4.737,4.737,0,0,1,1.018,2.281A5.752,5.752,0,0,0,52.243,49.7c1.265,1.372,1.679,2.359,1.656,2.968l.008-.016V52.7l-.008-.031c-.039.682-.482,1.031-1.3,1.549-1.64,1.044-4.546,1.854-6.4,4.088a8.084,8.084,0,0,1-5.3,3.1,3.894,3.894,0,0,1-4.1-2.338l-.013-.008c-.547-1.044-.312-2.669.146-4.4a30.15,30.15,0,0,0,1.206-4.942,26.91,26.91,0,0,1,.508-4.723,3.768,3.768,0,0,1,1.669-2.562l.117-.057Zm-28.16.128H12.3a2.386,2.386,0,0,1,.409.036,4.384,4.384,0,0,1,2.664,1.958l2.369,4.333.008.008a27.067,27.067,0,0,0,3.1,4.265c1.13,1.557,2,2.945,1.9,4.088V57.2a3.456,3.456,0,0,1-2.929,3.369,9.624,9.624,0,0,1-6.236-1.208c-2.52-1.4-5.515-1.221-7.439-1.567A2.524,2.524,0,0,1,4.26,56.747c-.289-.518-.294-1.565.32-3.2v-.008l.005-.008a6.36,6.36,0,0,0-.07-2.914,4.1,4.1,0,0,1,.112-2.448c.417-.87,1.031-1.039,1.794-1.388a7.315,7.315,0,0,0,2.385-1.221h.005V45.55c.667-.7,1.159-1.565,1.739-2.182a2.274,2.274,0,0,1,1.726-.875Zm18.64-23.627c-1.133.523-2.461,1.393-3.874,1.393a6.12,6.12,0,0,1-3.33-1.213c-.4-.349-.729-.7-.974-.872-.427-.349-.375-.87-.193-.87.284.042.336.352.518.523.25.172.56.518.94.867a5.409,5.409,0,0,0,3.036,1.216,8.191,8.191,0,0,0,3.64-1.213c.508-.352,1.159-.87,1.687-1.216.406-.357.388-.7.726-.7.336.042.089.349-.383.867a21.083,21.083,0,0,1-1.8,1.219v0ZM28.1,14.743v-.057c-.016-.049.034-.109.076-.13a.83.83,0,0,1,.677.01c.164,0,.417.174.391.352-.016.128-.221.172-.352.172s-.24-.112-.367-.177C28.39,14.865,28.145,14.891,28.1,14.743Zm-1.435,0c-.052.151-.294.128-.432.172-.122.065-.224.177-.362.177s-.341-.049-.357-.177c-.023-.172.229-.346.391-.346a.834.834,0,0,1,.674-.013.122.122,0,0,1,.078.13v.055h.008Z" transform="translate(-3.17)" fill="#9a9a9a"/></svg>