<svg xmlns="http://www.w3.org/2000/svg" width="62.491" height="62.491" viewBox="0 0 62.491 62.491"><path d="M0,0H62.491V62.491H0ZM57.372,47.587c-.456-2.851-2.312-5.247-7.819-7.481-1.916-.9-4.046-1.523-4.679-2.968a3.075,3.075,0,0,1-.12-1.836c.391-1.682,2.382-2.187,3.945-1.718a4.236,4.236,0,0,1,2.541,2.343c2.692-1.76,2.692-1.76,4.57-2.929a10.747,10.747,0,0,0-1.526-2.031c-1.64-1.836-3.825-2.773-7.379-2.692l-1.836.232a8.393,8.393,0,0,0-4.452,2.617A8.169,8.169,0,0,0,42.1,42.764c3.554,2.656,8.751,3.239,9.415,5.741.625,3.046-2.265,4.023-5.119,3.671-2.112-.469-3.281-1.526-4.57-3.479L37.06,51.435a10.529,10.529,0,0,0,2.109,2.888c4.531,4.572,15.857,4.338,17.891-2.614a8.813,8.813,0,0,0,.193-4.3l.12.174ZM33.982,28.722H28.129c0,5.046-.023,10.061-.023,15.115,0,3.208.164,6.153-.359,7.059-.859,1.794-3.072,1.565-4.078,1.25a5.024,5.024,0,0,1-2.161-2.226,2.234,2.234,0,0,0-.331-.51l-4.752,2.929a9.21,9.21,0,0,0,3.447,3.95,11.459,11.459,0,0,0,8.35,1.055,7.313,7.313,0,0,0,4.715-3.674c1.328-2.422,1.047-5.39,1.034-8.712.031-5.348,0-10.7,0-16.089l.01-.146Z" fill="#9a9a9a"/></svg>