<svg xmlns="http://www.w3.org/2000/svg" width="62.491" height="60.928" viewBox="0 0 62.491 60.928"><path d="M51.425.45H11.066A11.057,11.057,0,0,0,0,11.516v38.8A11.057,11.057,0,0,0,11.066,61.378H51.425A11.057,11.057,0,0,0,62.491,50.312v-38.8A11.057,11.057,0,0,0,51.425.45ZM59.861,49.3a9.433,9.433,0,0,1-9.426,9.478H12.055A9.468,9.468,0,0,1,2.6,49.323V12.505a9.468,9.468,0,0,1,9.452-9.452H50.409a9.452,9.452,0,0,1,9.452,9.452ZM24.71,28.961,32,42.97c.13.208.052.417-.156.417H27.314a.511.511,0,0,1-.547-.338c-1.666-3.437-3.359-6.874-5.1-10.571h-.052c-1.562,3.489-3.281,7.16-4.947,10.6a.5.5,0,0,1-.469.286H11.9c-.26,0-.286-.208-.156-.365L18.877,29.4l-6.9-13.748a.21.21,0,0,1,.156-.365h4.478a.41.41,0,0,1,.469.286c1.64,3.437,3.307,6.978,4.869,10.441H22c1.51-3.437,3.177-7,4.791-10.415.13-.208.208-.338.469-.338h4.192c.208,0,.286.156.156.365Zm8.566,4.244c0-6.067,4.036-10.806,10.441-10.806a11.547,11.547,0,0,1,1.354.052v-6.9a.261.261,0,0,1,.26-.26h4.114c.208,0,.26.078.26.208V39.4a18.546,18.546,0,0,0,.13,2.552c0,.156-.052.208-.208.286a15.51,15.51,0,0,1-6.666,1.51C37.312,43.777,33.276,40.288,33.276,33.205Zm11.8-6.666a3.938,3.938,0,0,0-1.51-.26c-3.281,0-5.572,2.526-5.572,6.718,0,4.791,2.343,6.718,5.286,6.718a4.912,4.912,0,0,0,1.8-.286V26.54Z" transform="translate(0 -0.45)" fill="#9a9a9a"/></svg>