<svg xmlns="http://www.w3.org/2000/svg" width="15.301" height="15.3" viewBox="0 0 15.301 15.3"><path d="M7.651.445A7.748,7.748,0,0,0,0,8.29a7.828,7.828,0,0,0,5.231,7.442c.383.074.523-.169.523-.377,0-.186-.006-.68-.01-1.334-2.128.473-2.577-1.052-2.577-1.052a2.066,2.066,0,0,0-.851-1.147c-.693-.486.054-.477.054-.477a1.609,1.609,0,0,1,1.172.808,1.608,1.608,0,0,0,2.228.652,1.689,1.689,0,0,1,.485-1.049c-1.7-.2-3.485-.871-3.485-3.876a3.069,3.069,0,0,1,.787-2.1A2.854,2.854,0,0,1,3.624,3.7s.641-.21,2.1.8a7.041,7.041,0,0,1,3.825,0c1.454-1.015,2.094-.8,2.094-.8a2.934,2.934,0,0,1,.077,2.076,3.082,3.082,0,0,1,.784,2.1c0,3.013-1.788,3.677-3.491,3.87A1.9,1.9,0,0,1,9.534,13.2c0,1.05-.01,1.893-.01,2.148,0,.206.134.451.526.373A7.8,7.8,0,0,0,15.3,8.29,7.75,7.75,0,0,0,7.651.445" transform="translate(0 -0.446)" fill="#9a9a9a"/></svg>