<svg xmlns="http://www.w3.org/2000/svg" width="62.49" height="62.491" viewBox="0 0 62.49 62.491"><path d="M61.309,28.46,34.024,1.177a4.034,4.034,0,0,0-5.7,0L22.674,6.84l7.186,7.186a4.786,4.786,0,0,1,6.059,6.1l6.921,6.926a4.784,4.784,0,1,1-2.875,2.716l-6.481-6.447v16.99a4.792,4.792,0,1,1-5.523.911,4.9,4.9,0,0,1,1.575-1.057V23a4.793,4.793,0,0,1-2.593-6.275l-7.061-7.1L1.172,28.332a4.052,4.052,0,0,0,0,5.7l27.288,27.28a4.023,4.023,0,0,0,5.692,0L61.309,34.154a4.022,4.022,0,0,0,0-5.694" transform="translate(0 0)" fill="#9a9a9a"/></svg>