<svg xmlns="http://www.w3.org/2000/svg" width="15.301" height="15.3" viewBox="0 0 15.301 15.3"><path d="M13.036,13.038H10.77V9.488c0-.847-.017-1.936-1.181-1.936-1.181,0-1.362.921-1.362,1.874v3.613H5.962v-7.3H8.138v1h.029a2.388,2.388,0,0,1,2.149-1.179c2.3,0,2.72,1.511,2.72,3.478v4.007ZM3.4,4.739A1.316,1.316,0,1,1,4.718,3.422,1.315,1.315,0,0,1,3.4,4.739Zm1.136,8.3H2.266v-7.3H4.539ZM14.169,0H1.129A1.115,1.115,0,0,0,0,1.1V14.2a1.115,1.115,0,0,0,1.129,1.1H14.167A1.119,1.119,0,0,0,15.3,14.2V1.1A1.12,1.12,0,0,0,14.167,0Z" fill="#9a9a9a"/></svg>