<svg xmlns="http://www.w3.org/2000/svg" width="62.491" height="42.434" viewBox="0 0 62.491 42.434"><path d="M42.715,10.335a2.873,2.873,0,0,0-.713.086v.034h.036a5.874,5.874,0,0,0,.557.711c.141.279.26.557.4.833l.036-.039a.968.968,0,0,0,.365-.867c-.1-.122-.12-.245-.208-.365-.1-.174-.328-.26-.469-.4ZM15.024,44.689H12.61c-.078-4.067-.32-7.889-.7-11.483h-.021L8.215,44.689H6.379L2.734,33.207H2.708q-.4,5.167-.508,11.483H0q.215-7.679,1.068-14.4H4.062L7.538,40.872h.021L11.066,30.29h2.851q.945,7.87,1.114,14.4ZM25.483,34.066Q24.007,42.053,21.6,45.679q-1.883,2.8-4.122,2.794A4.064,4.064,0,0,1,16,48.113V46.827a6.682,6.682,0,0,0,1.005.068,2.428,2.428,0,0,0,1.685-.578,2.1,2.1,0,0,0,.768-1.575,10.444,10.444,0,0,0-.6-2.458l-2.64-8.218h2.369l1.893,6.145a8.25,8.25,0,0,1,.534,2.924,39.722,39.722,0,0,0,2.174-9.069h2.291ZM57.575,44.689H50.727V30.29h2.3V42.919h4.544Zm-8.645.352-2.645-1.3a5.592,5.592,0,0,0,.664-.651q1.691-1.976,1.687-5.866,0-7.147-5.611-7.15a5.339,5.339,0,0,0-4.3,1.815,8.839,8.839,0,0,0-1.682,5.845q0,3.8,1.495,5.572a5.118,5.118,0,0,0,4.122,1.6,6.62,6.62,0,0,0,1.888-.255L48,46.66l.937-1.62Zm-8.572-3.234a8.848,8.848,0,0,1-.877-4.52q0-5.441,3.307-5.442a2.782,2.782,0,0,1,2.544,1.3,8.807,8.807,0,0,1,.875,4.486q0,5.484-3.307,5.489a2.783,2.783,0,0,1-2.546-1.3ZM36.041,40.7A3.815,3.815,0,0,1,34.7,43.71a5.279,5.279,0,0,1-3.6,1.172A7.222,7.222,0,0,1,27,43.541l.617-1.239a6.986,6.986,0,0,0,3.1.854,3.255,3.255,0,0,0,2.039-.573,1.962,1.962,0,0,0,.781-1.6c0-.859-.6-1.588-1.687-2.2-1.01-.555-3.028-1.711-3.028-1.711a3.446,3.446,0,0,1-1.646-3.065A3.574,3.574,0,0,1,28.4,31.181,4.613,4.613,0,0,1,31.573,30.1a6.536,6.536,0,0,1,3.645,1.068l-.555,1.239a7.1,7.1,0,0,0-2.77-.6,2.451,2.451,0,0,0-1.7.536,1.783,1.783,0,0,0-.646,1.364c0,.854.609,1.588,1.734,2.213,1.023.56,3.091,1.745,3.091,1.745a3.389,3.389,0,0,1,1.687,3.041ZM60.47,25.463a7.983,7.983,0,0,0-3.377.49c-.26.1-.677.1-.713.435.143.138.164.365.286.557a4,4,0,0,0,.9,1.06c.365.286.729.562,1.112.807.677.417,1.445.664,2.109,1.083.378.245.763.555,1.146.815.19.13.312.365.557.448v-.052c-.12-.156-.156-.383-.273-.557-.174-.174-.349-.331-.521-.5a8.392,8.392,0,0,0-1.81-1.758c-.557-.38-1.776-.911-2-1.549l-.034-.036a7.006,7.006,0,0,0,1.2-.276c.591-.156,1.133-.122,1.745-.276.276-.07.555-.156.833-.245V25.75c-.312-.312-.547-.737-.87-1.028a23.088,23.088,0,0,0-2.875-2.143c-.547-.349-1.239-.573-1.815-.87-.208-.1-.557-.156-.677-.331a6.714,6.714,0,0,1-.716-1.338c-.5-.958-.989-2.018-1.424-3.028a18.03,18.03,0,0,0-.885-1.987,17.543,17.543,0,0,0-6.733-6.509A8.479,8.479,0,0,0,43.4,7.8c-.435-.021-.87-.052-1.3-.07a6.317,6.317,0,0,1-.807-.612c-.989-.625-3.552-1.979-4.281-.187-.469,1.13.7,2.244,1.1,2.817a8.026,8.026,0,0,1,.885,1.3c.122.3.156.612.279.927a20.836,20.836,0,0,0,.9,2.336,7.986,7.986,0,0,0,.643,1.075c.141.19.38.279.435.591a5.069,5.069,0,0,0-.4,1.3,7.713,7.713,0,0,0,.505,5.858c.279.432.943,1.39,1.83,1.023.781-.312.609-1.3.833-2.174.052-.208.018-.346.125-.487v.039c.245.49.49.956.713,1.445a9.8,9.8,0,0,0,2.257,2.33c.417.312.747.854,1.268,1.047v-.052h-.039a2.324,2.324,0,0,0-.4-.346,8.969,8.969,0,0,1-.911-1.042,22.809,22.809,0,0,1-1.945-3.171c-.286-.547-.526-1.135-.755-1.674-.1-.208-.1-.521-.279-.625a6.426,6.426,0,0,0-.833,1.18,9.948,9.948,0,0,0-.49,2.63c-.07.018-.036,0-.07.036-.557-.135-.747-.713-.956-1.2a7.557,7.557,0,0,1-.156-4.648c.122-.365.643-1.515.435-1.864-.109-.331-.453-.521-.643-.789a6.451,6.451,0,0,1-.625-1.112c-.417-.974-.625-2.052-1.078-3.026a9.019,9.019,0,0,0-.87-1.336,8.761,8.761,0,0,1-.958-1.354c-.086-.19-.208-.505-.07-.713a.3.3,0,0,1,.245-.234c.229-.187.872.057,1.1.161a8.9,8.9,0,0,1,1.724.87c.245.172.508.5.82.588h.365c.557.122,1.185.036,1.705.19a11.141,11.141,0,0,1,2.5,1.2,15.5,15.5,0,0,1,5.429,5.952c.208.4.3.768.49,1.185.365.859.815,1.726,1.185,2.557a11.337,11.337,0,0,0,1.239,2.336c.26.365,1.307.555,1.776.745a12.651,12.651,0,0,1,1.2.49c.6.365,1.182.781,1.745,1.182.286.2,1.153.633,1.206.984Z" transform="translate(0 -6.039)" fill="#9a9a9a"/></svg>