<svg xmlns="http://www.w3.org/2000/svg" width="62.491" height="32.873" viewBox="0 0 62.491 32.873"><path d="M18.252,20.3H15.795l-1.341,6.895h2.182a5.28,5.28,0,0,0,3.234-.818A4.342,4.342,0,0,0,21.3,23.644a2.985,2.985,0,0,0-.323-2.591,3.675,3.675,0,0,0-2.726-.755ZM31.245,8.532C13.99,8.532,0,15.89,0,24.967S13.99,41.4,31.245,41.4s31.245-7.361,31.245-16.438S48.5,8.532,31.245,8.532Zm-8.488,19.4a6.319,6.319,0,0,1-2.388,1.435,11.125,11.125,0,0,1-3.346.427H13.948L13.1,34.171H9.509l3.2-16.471h6.9a5.727,5.727,0,0,1,4.541,1.635,5.12,5.12,0,0,1,.859,4.562,7.178,7.178,0,0,1-2.255,4.036Zm10.478,1.862,1.414-7.288a1.969,1.969,0,0,0-.177-1.7,2.5,2.5,0,0,0-1.789-.453H29.839L28.006,29.8H24.444l3.2-16.474h3.559l-.851,4.38h3.171q3,0,4.13,1.044t.685,3.382l-1.489,7.666H33.235Zm19.781-5.9a7.244,7.244,0,0,1-.794,2.205,7.436,7.436,0,0,1-1.461,1.83,6.353,6.353,0,0,1-2.388,1.435,11.132,11.132,0,0,1-3.348.427H41.952l-.851,4.38H37.513l3.2-16.471h6.9a5.727,5.727,0,0,1,4.541,1.635,5.113,5.113,0,0,1,.862,4.559Zm-6.757-3.6H43.8L42.46,27.193h2.182a5.269,5.269,0,0,0,3.234-.818,4.356,4.356,0,0,0,1.435-2.731,2.984,2.984,0,0,0-.325-2.591,3.675,3.675,0,0,0-2.726-.755Z" transform="translate(0 -8.532)" fill="#9a9a9a"/></svg>