<svg xmlns="http://www.w3.org/2000/svg" width="15.301" height="14.922" viewBox="0 0 15.301 14.922"><path d="M7.651.445A7.651,7.651,0,0,0,5.231,15.354c.383.072.523-.164.523-.368,0-.182-.006-.663-.01-1.3-2.128.462-2.577-1.026-2.577-1.026a2.028,2.028,0,0,0-.851-1.119c-.693-.474.054-.465.054-.465a1.6,1.6,0,0,1,1.172.788A1.63,1.63,0,0,0,5.77,12.5a1.631,1.631,0,0,1,.485-1.023c-1.7-.191-3.485-.849-3.485-3.781a2.952,2.952,0,0,1,.787-2.053,2.72,2.72,0,0,1,.067-2.025s.641-.205,2.1.784a7.213,7.213,0,0,1,3.825,0c1.454-.989,2.094-.784,2.094-.784a2.8,2.8,0,0,1,.077,2.025A2.964,2.964,0,0,1,12.508,7.7c0,2.939-1.788,3.586-3.491,3.774a1.832,1.832,0,0,1,.516,1.415c0,1.024-.01,1.846-.01,2.095,0,.2.134.44.526.363a7.641,7.641,0,0,0-2.4-14.9" transform="translate(0 -0.446)" fill="#9a9a9a"/></svg>