<svg xmlns="http://www.w3.org/2000/svg" width="17.3" height="15.3" viewBox="0 0 17.3 15.3"><path d="M17.266,5.191A6.759,6.759,0,0,1,15.23,5.8a3.849,3.849,0,0,0,1.559-2.136,6.973,6.973,0,0,1-2.254.929,3.406,3.406,0,0,0-2.588-1.223A3.712,3.712,0,0,0,8.4,7.226a4.282,4.282,0,0,0,.092.882,9.8,9.8,0,0,1-7.31-4.02A4.04,4.04,0,0,0,.7,6.028,3.959,3.959,0,0,0,2.279,9.241,3.32,3.32,0,0,1,.673,8.757v.048a3.8,3.8,0,0,0,2.844,3.786,3.3,3.3,0,0,1-1.594.067,3.61,3.61,0,0,0,3.319,2.68,6.757,6.757,0,0,1-4.4,1.651A6.925,6.925,0,0,1,0,16.936a9.5,9.5,0,0,0,5.447,1.733c6.526,0,10.091-5.879,10.091-10.97,0-.164,0-.329-.011-.494a7.543,7.543,0,0,0,1.773-2l-.034-.016Z" transform="translate(0 -3.369)" fill="#9a9a9a"/></svg>